<?xml version="1.0" standalone="no"?>
<!DOCTYPE svg PUBLIC "-//W3C//DTD SVG 1.1//EN" 
  "http://www.w3.org/Graphics/SVG/1.1/DTD/svg11.dtd">
<svg width="2048" height="2048" viewBox="0 0 2048 2048"
     xmlns="http://www.w3.org/2000/svg" version="1.1">
<desc>'machine3.blend', Machine, (Blender 2.78 (sub 0))</desc>
<polygon stroke="black" stroke-width="1" fill="grey" fill-opacity="0.25" points="711.251,34.887 642.792,35.262 643.227,528.379 711.687,528.004 " />
<polygon stroke="black" stroke-width="1" fill="grey" fill-opacity="0.25" points="639.625,527.413 638.926,35.704 497.512,35.015 496.952,528.036 " />
<polygon stroke="black" stroke-width="1" fill="grey" fill-opacity="0.25" points="280.409,114.288 278.992,132.610 278.591,145.861 278.283,159.344 278.249,167.387 278.195,183.526 274.773,264.739 278.516,353.069 280.470,391.602 281.889,419.589 283.268,445.692 294.097,469.779 322.041,485.694 334.021,491.237 362.709,505.507 376.519,511.235 406.565,521.185 432.503,524.946 493.631,529.638 493.986,34.870 427.163,44.949 401.353,47.929 371.625,54.668 358.090,58.390 330.041,67.418 318.318,71.111 292.640,81.788 285.127,92.586 282.823,102.395 " />
<polygon stroke="black" stroke-width="1" fill="grey" fill-opacity="0.25" points="1184.788,1412.041 1195.370,1390.362 1161.293,1390.300 1174.093,1411.872 " />
<polygon stroke="black" stroke-width="1" fill="grey" fill-opacity="0.25" points="1184.700,1479.446 1184.877,1455.886 1175.075,1455.998 1175.103,1479.377 " />
<polygon stroke="black" stroke-width="1" fill="grey" fill-opacity="0.25" points="1195.490,1493.149 1195.370,1390.362 1184.788,1412.041 1184.703,1443.598 1184.842,1449.413 1184.877,1455.886 1184.700,1479.446 " />
<polygon stroke="black" stroke-width="1" fill="grey" fill-opacity="0.25" points="1184.191,1449.405 1182.470,1453.030 1184.877,1455.886 1184.842,1449.413 " />
<polygon stroke="black" stroke-width="1" fill="grey" fill-opacity="0.25" points="1176.886,1446.231 1182.275,1446.034 1184.703,1443.598 1174.625,1443.541 " />
<polygon stroke="black" stroke-width="1" fill="grey" fill-opacity="0.25" points="973.845,1837.157 886.395,1837.156 800.472,1837.156 800.472,1911.519 886.391,1911.519 973.845,1911.520 " />
<polygon stroke="black" stroke-width="1" fill="grey" fill-opacity="0.25" points="1057.853,1195.408 1063.494,1190.367 659.113,1190.367 664.513,1195.435 " />
<polygon stroke="black" stroke-width="1" fill="grey" fill-opacity="0.25" points="1057.956,1293.803 1063.331,1298.872 1063.494,1190.367 1057.853,1195.408 " />
<polygon stroke="black" stroke-width="1" fill="grey" fill-opacity="0.25" points="1057.853,1195.408 664.513,1195.435 664.202,1293.841 1057.956,1293.803 " />
<polygon stroke="black" stroke-width="1" fill="grey" fill-opacity="0.25" points="1503.330,529.894 1503.550,37.710 1228.024,38.321 1227.784,529.349 " />
<polygon stroke="black" stroke-width="1" fill="grey" fill-opacity="0.25" points="868.950,570.380 868.827,1160.747 921.135,1160.817 921.370,570.194 " />
<polygon stroke="black" stroke-width="1" fill="grey" fill-opacity="0.25" points="1220.507,530.875 1219.485,35.829 1210.900,33.975 1210.666,529.767 " />
<polygon stroke="black" stroke-width="1" fill="grey" fill-opacity="0.25" points="94.847,1446.360 102.544,1447.528 105.536,1444.695 " />
<polygon stroke="black" stroke-width="1" fill="grey" fill-opacity="0.25" points="102.544,1447.528 110.084,1448.703 105.536,1444.695 " />
<polygon stroke="black" stroke-width="1" fill="grey" fill-opacity="0.25" points="110.084,1448.703 116.609,1449.678 105.536,1444.695 " />
<polygon stroke="black" stroke-width="1" fill="grey" fill-opacity="0.25" points="1614.613,1421.649 1621.439,1420.305 1625.222,1416.039 " />
<polygon stroke="black" stroke-width="1" fill="grey" fill-opacity="0.25" points="1621.439,1420.305 1629.069,1418.848 1625.222,1416.039 " />
<polygon stroke="black" stroke-width="1" fill="grey" fill-opacity="0.25" points="1629.069,1418.848 1636.927,1417.390 1625.222,1416.039 " />
<polygon stroke="black" stroke-width="1" fill="grey" fill-opacity="0.25" points="711.251,34.887 711.687,528.004 720.286,527.792 719.866,35.125 " />
<polygon stroke="black" stroke-width="1" fill="grey" fill-opacity="0.25" points="719.866,35.125 720.286,527.792 728.861,527.445 728.490,36.128 " />
<polygon stroke="black" stroke-width="1" fill="grey" fill-opacity="0.25" points="728.490,36.128 728.861,527.445 737.403,527.020 737.099,37.570 " />
<polygon stroke="black" stroke-width="1" fill="grey" fill-opacity="0.25" points="1177.295,1453.260 1175.241,1449.785 1174.588,1449.849 1175.075,1455.998 " />
<polygon stroke="black" stroke-width="1" fill="grey" fill-opacity="0.25" points="1175.241,1449.785 1176.886,1446.231 1174.625,1443.541 1174.588,1449.849 " />
<polygon stroke="black" stroke-width="1" fill="grey" fill-opacity="0.25" points="1182.470,1453.030 1177.295,1453.260 1175.075,1455.998 1184.877,1455.886 " />
<polygon stroke="black" stroke-width="1" fill="grey" fill-opacity="0.25" points="1182.275,1446.034 1184.191,1449.405 1184.842,1449.413 1184.703,1443.598 " />
<polygon stroke="black" stroke-width="1" fill="grey" fill-opacity="0.25" points="1161.293,1390.300 1161.293,1493.180 1175.103,1479.377 1175.075,1455.998 1174.588,1449.849 1174.625,1443.541 1174.093,1411.872 " />
<polygon stroke="black" stroke-width="1" fill="grey" fill-opacity="0.25" points="1164.733,1495.439 1175.103,1479.377 1161.293,1493.180 " />
<polygon stroke="black" stroke-width="1" fill="grey" fill-opacity="0.25" points="1192.949,1495.438 1184.700,1479.446 1175.103,1479.377 1164.733,1495.439 " />
<polygon stroke="black" stroke-width="1" fill="grey" fill-opacity="0.25" points="1195.490,1493.149 1184.700,1479.446 1192.949,1495.438 " />
<polygon stroke="black" stroke-width="1" fill="grey" fill-opacity="0.25" points="664.513,1195.435 659.113,1190.367 659.020,1298.884 664.202,1293.841 " />
<polygon stroke="black" stroke-width="1" fill="grey" fill-opacity="0.25" points="1184.703,1443.598 1184.788,1412.041 1174.093,1411.872 1174.625,1443.541 " />
<polygon stroke="black" stroke-width="1" fill="grey" fill-opacity="0.25" points="1057.956,1293.803 664.202,1293.841 659.020,1298.884 1063.331,1298.872 " />
<polygon stroke="black" stroke-width="1" fill="grey" fill-opacity="0.25" points="1227.784,529.349 1228.024,38.321 1219.485,35.829 1220.507,530.875 " />
<polygon stroke="black" stroke-width="1" fill="grey" fill-opacity="0.25" points="1210.666,529.767 1210.900,33.975 1202.210,40.125 1201.856,523.686 " />
<polygon stroke="black" stroke-width="1" fill="grey" fill-opacity="0.25" points="1202.210,40.125 762.556,40.261 754.078,36.708 745.579,36.903 737.099,37.570 737.403,527.020 748.794,527.169 748.616,527.647 757.162,523.821 1201.856,523.686 " />
<polygon stroke="black" stroke-width="1" fill="grey" fill-opacity="0.25" points="1438.241,1160.804 1446.125,1164.519 1448.168,1163.765 1449.079,1161.788 1449.383,595.735 1440.082,571.727 1429.819,567.358 1419.425,570.437 1021.275,570.191 1021.090,1160.557 " />
<polygon stroke="black" stroke-width="1" fill="grey" fill-opacity="0.25" points="1021.090,1160.557 1021.275,570.191 1001.961,570.087 1001.774,1160.453 " />
<polygon stroke="black" stroke-width="1" fill="grey" fill-opacity="0.25" points="1001.961,570.087 975.130,570.480 974.895,1161.103 1001.774,1160.453 " />
<polygon stroke="black" stroke-width="1" fill="grey" fill-opacity="0.25" points="948.249,570.336 948.014,1160.959 974.895,1161.103 975.130,570.480 " />
<polygon stroke="black" stroke-width="1" fill="grey" fill-opacity="0.25" points="948.249,570.336 921.370,570.194 921.135,1160.817 948.014,1160.959 " />
<polygon stroke="black" stroke-width="1" fill="grey" fill-opacity="0.25" points="769.800,1160.224 789.069,1160.325 789.194,569.959 769.926,570.063 " />
<polygon stroke="black" stroke-width="1" fill="grey" fill-opacity="0.25" points="789.194,569.959 789.069,1160.325 815.828,1160.467 815.952,570.100 " />
<polygon stroke="black" stroke-width="1" fill="grey" fill-opacity="0.25" points="815.828,1160.467 842.414,1160.607 842.537,570.241 815.952,570.100 " />
<polygon stroke="black" stroke-width="1" fill="grey" fill-opacity="0.25" points="842.537,570.241 842.414,1160.607 868.827,1160.747 868.950,570.380 " />
<polygon stroke="black" stroke-width="1" fill="grey" fill-opacity="0.25" points="769.800,1160.224 769.926,570.063 372.775,570.652 362.383,566.366 352.018,567.595 341.764,570.479 341.319,1160.918 342.248,1162.993 344.372,1163.804 352.649,1160.018 " />
<polygon stroke="black" stroke-width="1" fill="grey" fill-opacity="0.25" points="1411.262,1932.900 1408.324,1922.406 1302.984,1954.483 1306.126,1963.852 " />
<polygon stroke="black" stroke-width="1" fill="grey" fill-opacity="0.25" points="1113.095,2006.456 1114.410,2004.868 1100.893,2008.691 1101.310,2010.037 " />
<polygon stroke="black" stroke-width="1" fill="grey" fill-opacity="0.25" points="1115.225,1747.473 1103.446,1742.761 1086.936,1765.480 1097.394,1768.992 " />
<polygon stroke="black" stroke-width="1" fill="grey" fill-opacity="0.25" points="1613.581,1422.020 1222.149,1397.660 1206.115,1655.311 1224.684,1702.489 1232.658,1725.064 1302.984,1954.483 1408.324,1922.406 1348.993,1713.575 1343.120,1683.365 1343.964,1654.634 1351.711,1628.414 1363.515,1608.981 1402.900,1595.493 1426.690,1602.735 1447.191,1619.280 1464.418,1641.823 1477.749,1669.477 1537.076,1878.310 1708.003,1877.001 " />
<polygon stroke="black" stroke-width="1" fill="grey" fill-opacity="0.25" points="1706.454,1898.762 1708.003,1877.001 1537.076,1878.310 1536.247,1895.692 " />
<polygon stroke="black" stroke-width="1" fill="grey" fill-opacity="0.25" points="218.664,1907.329 217.529,1888.178 50.645,1890.462 54.061,1912.753 " />
<polygon stroke="black" stroke-width="1" fill="grey" fill-opacity="0.25" points="879.302,1714.934 755.174,1720.763 768.971,1749.207 883.203,1745.216 " />
<polygon stroke="black" stroke-width="1" fill="grey" fill-opacity="0.25" points="1100.616,1817.344 1098.543,1799.127 1084.674,1804.622 1084.486,1823.056 " />
<polygon stroke="black" stroke-width="1" fill="grey" fill-opacity="0.25" points="689.486,1758.933 665.458,1764.189 675.645,1771.015 698.562,1768.820 " />
<polygon stroke="black" stroke-width="1" fill="grey" fill-opacity="0.25" points="662.648,1815.933 631.426,1993.508 663.106,2000.307 689.096,1822.606 " />
<polygon stroke="black" stroke-width="1" fill="grey" fill-opacity="0.25" points="445.443,1966.125 448.723,1955.960 343.958,1927.380 341.189,1938.476 " />
<polygon stroke="black" stroke-width="1" fill="grey" fill-opacity="0.25" points="1536.119,1901.457 1707.549,1905.264 1706.454,1898.762 1536.247,1895.692 " />
<polygon stroke="black" stroke-width="1" fill="grey" fill-opacity="0.25" points="1130.963,1991.408 1100.616,1817.344 1084.486,1823.056 1111.143,1995.500 " />
<polygon stroke="black" stroke-width="1" fill="grey" fill-opacity="0.25" points="1016.533,1754.027 996.572,1752.339 993.930,1768.042 1012.923,1768.875 " />
<polygon stroke="black" stroke-width="1" fill="grey" fill-opacity="0.25" points="1098.543,1799.127 1097.394,1768.992 1090.302,1775.137 1084.674,1804.622 " />
<polygon stroke="black" stroke-width="1" fill="grey" fill-opacity="0.25" points="665.458,1764.189 664.544,1796.897 686.851,1802.926 675.645,1771.015 " />
<polygon stroke="black" stroke-width="1" fill="grey" fill-opacity="0.25" points="996.572,1752.339 883.194,1747.496 885.281,1764.597 993.930,1768.042 " />
<polygon stroke="black" stroke-width="1" fill="grey" fill-opacity="0.25" points="725.681,2024.210 725.851,2022.926 689.134,2017.727 688.854,2018.928 " />
<polygon stroke="black" stroke-width="1" fill="grey" fill-opacity="0.25" points="664.544,1796.897 662.648,1815.933 689.096,1822.606 686.851,1802.926 " />
<polygon stroke="black" stroke-width="1" fill="grey" fill-opacity="0.25" points="1133.573,1998.522 1130.963,1991.408 1111.143,1995.500 1114.304,2002.320 " />
<polygon stroke="black" stroke-width="1" fill="grey" fill-opacity="0.25" points="599.939,1658.281 579.306,1630.990 542.068,1656.773 540.950,1657.154 565.823,1677.930 " />
<polygon stroke="black" stroke-width="1" fill="grey" fill-opacity="0.25" points="1086.936,1765.480 1078.940,1763.541 1073.325,1773.072 1080.912,1773.965 " />
<polygon stroke="black" stroke-width="1" fill="grey" fill-opacity="0.25" points="593.926,1989.631 591.487,1998.192 628.068,2001.250 631.426,1993.508 " />
<polygon stroke="black" stroke-width="1" fill="grey" fill-opacity="0.25" points="1097.394,1768.992 1086.936,1765.480 1080.912,1773.965 1090.302,1775.137 " />
<polygon stroke="black" stroke-width="1" fill="grey" fill-opacity="0.25" points="1224.684,1702.489 1206.115,1655.311 1204.422,1656.045 1180.138,1679.227 1198.858,1723.353 " />
<polygon stroke="black" stroke-width="1" fill="grey" fill-opacity="0.25" points="883.194,1747.496 769.100,1751.443 775.651,1765.087 885.281,1764.597 " />
<polygon stroke="black" stroke-width="1" fill="grey" fill-opacity="0.25" points="691.347,2006.451 713.479,1824.409 689.096,1822.606 663.106,2000.307 " />
<polygon stroke="black" stroke-width="1" fill="grey" fill-opacity="0.25" points="1002.574,2023.510 1002.480,2021.837 890.067,2025.756 890.091,2027.708 " />
<polygon stroke="black" stroke-width="1" fill="grey" fill-opacity="0.25" points="1023.822,2021.869 1023.672,2020.398 1002.480,2021.837 1002.574,2023.510 " />
<polygon stroke="black" stroke-width="1" fill="grey" fill-opacity="0.25" points="1022.752,2009.520 1007.175,1827.229 989.530,1827.470 995.480,1915.926 1002.065,2010.944 " />
<polygon stroke="black" stroke-width="1" fill="grey" fill-opacity="0.25" points="890.091,2027.708 890.067,2025.756 778.767,2025.888 778.706,2027.406 " />
<polygon stroke="black" stroke-width="1" fill="grey" fill-opacity="0.25" points="1111.143,1995.500 1084.486,1823.056 1073.705,1824.217 1098.656,1998.415 " />
<polygon stroke="black" stroke-width="1" fill="grey" fill-opacity="0.25" points="1098.656,1998.415 1073.705,1824.217 1065.618,1824.933 1089.499,2000.226 " />
<polygon stroke="black" stroke-width="1" fill="grey" fill-opacity="0.25" points="1101.310,2010.037 1100.893,2008.691 1091.417,2010.686 1091.735,2012.075 " />
<polygon stroke="black" stroke-width="1" fill="grey" fill-opacity="0.25" points="1073.705,1824.217 1074.402,1805.101 1066.684,1805.257 1065.618,1824.933 " />
<polygon stroke="black" stroke-width="1" fill="grey" fill-opacity="0.25" points="1084.486,1823.056 1084.674,1804.622 1074.402,1805.101 1073.705,1824.217 " />
<polygon stroke="black" stroke-width="1" fill="grey" fill-opacity="0.25" points="888.050,1826.914 887.300,1804.978 784.807,1804.305 787.090,1826.068 " />
<polygon stroke="black" stroke-width="1" fill="grey" fill-opacity="0.25" points="713.479,1824.409 710.681,1803.742 686.851,1802.926 689.096,1822.606 " />
<polygon stroke="black" stroke-width="1" fill="grey" fill-opacity="0.25" points="1007.175,1827.229 1008.200,1806.043 990.189,1805.986 989.530,1827.470 " />
<polygon stroke="black" stroke-width="1" fill="grey" fill-opacity="0.25" points="989.530,1827.470 990.189,1805.986 887.300,1804.978 888.050,1826.914 " />
<polygon stroke="black" stroke-width="1" fill="grey" fill-opacity="0.25" points="990.189,1805.986 993.930,1768.042 885.281,1764.597 887.300,1804.978 " />
<polygon stroke="black" stroke-width="1" fill="grey" fill-opacity="0.25" points="1008.200,1806.043 1012.923,1768.875 993.930,1768.042 990.189,1805.986 " />
<polygon stroke="black" stroke-width="1" fill="grey" fill-opacity="0.25" points="710.681,1803.742 698.562,1768.820 675.645,1771.015 686.851,1802.926 " />
<polygon stroke="black" stroke-width="1" fill="grey" fill-opacity="0.25" points="887.300,1804.978 885.281,1764.597 775.651,1765.087 784.807,1804.305 " />
<polygon stroke="black" stroke-width="1" fill="grey" fill-opacity="0.25" points="1084.674,1804.622 1090.302,1775.137 1080.912,1773.965 1074.402,1805.101 " />
<polygon stroke="black" stroke-width="1" fill="grey" fill-opacity="0.25" points="1074.402,1805.101 1080.912,1773.965 1073.325,1773.072 1066.684,1805.257 " />
<polygon stroke="black" stroke-width="1" fill="grey" fill-opacity="0.25" points="1103.446,1742.761 1094.667,1739.705 1078.940,1763.541 1086.936,1765.480 " />
<polygon stroke="black" stroke-width="1" fill="grey" fill-opacity="0.25" points="1166.420,1995.598 1164.627,1987.627 1130.963,1991.408 1133.573,1998.522 " />
<polygon stroke="black" stroke-width="1" fill="grey" fill-opacity="0.25" points="635.989,1780.953 632.416,1800.510 662.648,1815.933 664.544,1796.897 " />
<polygon stroke="black" stroke-width="1" fill="grey" fill-opacity="0.25" points="631.426,1993.508 628.068,2001.250 658.757,2008.036 663.106,2000.307 " />
<polygon stroke="black" stroke-width="1" fill="grey" fill-opacity="0.25" points="1003.326,1721.501 879.302,1714.934 883.203,1745.216 996.723,1750.097 " />
<polygon stroke="black" stroke-width="1" fill="grey" fill-opacity="0.25" points="641.480,1742.983 635.989,1780.953 664.544,1796.897 665.458,1764.189 " />
<polygon stroke="black" stroke-width="1" fill="grey" fill-opacity="0.25" points="1122.423,1783.879 1115.225,1747.473 1097.394,1768.992 1098.543,1799.127 " />
<polygon stroke="black" stroke-width="1" fill="grey" fill-opacity="0.25" points="1030.594,1724.611 1003.326,1721.501 996.723,1750.097 1015.074,1751.690 " />
<polygon stroke="black" stroke-width="1" fill="grey" fill-opacity="0.25" points="1164.627,1987.627 1126.382,1802.484 1100.616,1817.344 1130.963,1991.408 " />
<polygon stroke="black" stroke-width="1" fill="grey" fill-opacity="0.25" points="632.416,1800.510 593.926,1989.631 631.426,1993.508 662.648,1815.933 " />
<polygon stroke="black" stroke-width="1" fill="grey" fill-opacity="0.25" points="668.404,1734.595 641.480,1742.983 665.458,1764.189 689.486,1758.933 " />
<polygon stroke="black" stroke-width="1" fill="grey" fill-opacity="0.25" points="1126.382,1802.484 1122.423,1783.879 1098.543,1799.127 1100.616,1817.344 " />
<polygon stroke="black" stroke-width="1" fill="grey" fill-opacity="0.25" points="1137.916,1795.428 1132.641,1776.200 1122.423,1783.879 1126.382,1802.484 " />
<polygon stroke="black" stroke-width="1" fill="grey" fill-opacity="0.25" points="659.632,1723.981 631.305,1733.559 641.480,1742.983 668.404,1734.595 " />
<polygon stroke="black" stroke-width="1" fill="grey" fill-opacity="0.25" points="619.459,1793.309 578.322,1987.347 593.926,1989.631 632.416,1800.510 " />
<polygon stroke="black" stroke-width="1" fill="grey" fill-opacity="0.25" points="1179.164,1985.378 1137.916,1795.428 1126.382,1802.484 1164.627,1987.627 " />
<polygon stroke="black" stroke-width="1" fill="grey" fill-opacity="0.25" points="1034.599,1711.968 1006.316,1708.009 1003.326,1721.501 1030.594,1724.611 " />
<polygon stroke="black" stroke-width="1" fill="grey" fill-opacity="0.25" points="1132.641,1776.200 1123.622,1738.146 1115.225,1747.473 1122.423,1783.879 " />
<polygon stroke="black" stroke-width="1" fill="grey" fill-opacity="0.25" points="631.305,1733.559 624.123,1773.279 635.989,1780.953 641.480,1742.983 " />
<polygon stroke="black" stroke-width="1" fill="grey" fill-opacity="0.25" points="1006.316,1708.009 878.013,1700.940 879.302,1714.934 1003.326,1721.501 " />
<polygon stroke="black" stroke-width="1" fill="grey" fill-opacity="0.25" points="578.322,1987.347 575.466,1996.064 591.487,1998.192 593.926,1989.631 " />
<polygon stroke="black" stroke-width="1" fill="grey" fill-opacity="0.25" points="624.123,1773.279 619.459,1793.309 632.416,1800.510 635.989,1780.953 " />
<polygon stroke="black" stroke-width="1" fill="grey" fill-opacity="0.25" points="1181.356,1993.441 1179.164,1985.378 1164.627,1987.627 1166.420,1995.598 " />
<polygon stroke="black" stroke-width="1" fill="grey" fill-opacity="0.25" points="1111.059,1732.690 1101.761,1729.102 1094.667,1739.705 1103.446,1742.761 " />
<polygon stroke="black" stroke-width="1" fill="grey" fill-opacity="0.25" points="878.013,1700.940 749.827,1707.537 755.174,1720.763 879.302,1714.934 " />
<polygon stroke="black" stroke-width="1" fill="grey" fill-opacity="0.25" points="1123.622,1738.146 1111.059,1732.690 1103.446,1742.761 1115.225,1747.473 " />
<polygon stroke="black" stroke-width="1" fill="grey" fill-opacity="0.25" points="1144.985,1714.824 1131.187,1708.079 1111.059,1732.690 1123.622,1738.146 " />
<polygon stroke="black" stroke-width="1" fill="grey" fill-opacity="0.25" points="874.290,1666.698 734.838,1675.678 749.827,1707.537 878.013,1700.940 " />
<polygon stroke="black" stroke-width="1" fill="grey" fill-opacity="0.25" points="1131.187,1708.079 1120.826,1703.500 1101.761,1729.102 1111.059,1732.690 " />
<polygon stroke="black" stroke-width="1" fill="grey" fill-opacity="0.25" points="1217.627,1986.442 1215.115,1978.371 1179.164,1985.378 1181.356,1993.441 " />
<polygon stroke="black" stroke-width="1" fill="grey" fill-opacity="0.25" points="594.432,1753.860 588.906,1774.257 619.459,1793.309 624.123,1773.279 " />
<polygon stroke="black" stroke-width="1" fill="grey" fill-opacity="0.25" points="539.334,1979.814 536.066,1988.417 575.466,1996.064 578.322,1987.347 " />
<polygon stroke="black" stroke-width="1" fill="grey" fill-opacity="0.25" points="1014.635,1675.096 874.290,1666.698 878.013,1700.940 1006.316,1708.009 " />
<polygon stroke="black" stroke-width="1" fill="grey" fill-opacity="0.25" points="605.033,1711.300 594.432,1753.860 624.123,1773.279 631.305,1733.559 " />
<polygon stroke="black" stroke-width="1" fill="grey" fill-opacity="0.25" points="1158.238,1756.602 1144.985,1714.824 1123.622,1738.146 1132.641,1776.200 " />
<polygon stroke="black" stroke-width="1" fill="grey" fill-opacity="0.25" points="1042.098,1679.886 1014.635,1675.096 1006.316,1708.009 1034.599,1711.968 " />
<polygon stroke="black" stroke-width="1" fill="grey" fill-opacity="0.25" points="1215.115,1978.371 1164.575,1776.415 1137.916,1795.428 1179.164,1985.378 " />
<polygon stroke="black" stroke-width="1" fill="grey" fill-opacity="0.25" points="588.906,1774.257 539.334,1979.814 578.322,1987.347 619.459,1793.309 " />
<polygon stroke="black" stroke-width="1" fill="grey" fill-opacity="0.25" points="635.732,1699.044 605.033,1711.300 631.305,1733.559 659.632,1723.981 " />
<polygon stroke="black" stroke-width="1" fill="grey" fill-opacity="0.25" points="1164.575,1776.415 1158.238,1756.602 1132.641,1776.200 1137.916,1795.428 " />
<polygon stroke="black" stroke-width="1" fill="grey" fill-opacity="0.25" points="1178.121,1766.892 1170.765,1746.431 1158.238,1756.602 1164.575,1776.415 " />
<polygon stroke="black" stroke-width="1" fill="grey" fill-opacity="0.25" points="624.102,1686.514 592.779,1700.198 605.033,1711.300 635.732,1699.044 " />
<polygon stroke="black" stroke-width="1" fill="grey" fill-opacity="0.25" points="574.007,1764.883 521.342,1975.665 539.334,1979.814 588.906,1774.257 " />
<polygon stroke="black" stroke-width="1" fill="grey" fill-opacity="0.25" points="1232.059,1974.407 1178.121,1766.892 1164.575,1776.415 1215.115,1978.371 " />
<polygon stroke="black" stroke-width="1" fill="grey" fill-opacity="0.25" points="1044.968,1663.296 1018.458,1658.500 1014.635,1675.096 1042.098,1679.886 " />
<polygon stroke="black" stroke-width="1" fill="grey" fill-opacity="0.25" points="1170.765,1746.431 1155.640,1703.381 1144.985,1714.824 1158.238,1756.602 " />
<polygon stroke="black" stroke-width="1" fill="grey" fill-opacity="0.25" points="592.779,1700.198 580.368,1744.044 594.432,1753.860 605.033,1711.300 " />
<polygon stroke="black" stroke-width="1" fill="grey" fill-opacity="0.25" points="1018.458,1658.500 872.706,1649.889 874.290,1666.698 1014.635,1675.096 " />
<polygon stroke="black" stroke-width="1" fill="grey" fill-opacity="0.25" points="521.342,1975.665 517.925,1984.373 536.066,1988.417 539.334,1979.814 " />
<polygon stroke="black" stroke-width="1" fill="grey" fill-opacity="0.25" points="580.368,1744.044 574.007,1764.883 588.906,1774.257 594.432,1753.860 " />
<polygon stroke="black" stroke-width="1" fill="grey" fill-opacity="0.25" points="1234.789,1982.575 1232.059,1974.407 1215.115,1978.371 1217.627,1986.442 " />
<polygon stroke="black" stroke-width="1" fill="grey" fill-opacity="0.25" points="1141.456,1695.675 1130.545,1690.264 1120.826,1703.500 1131.187,1708.079 " />
<polygon stroke="black" stroke-width="1" fill="grey" fill-opacity="0.25" points="872.706,1649.889 728.074,1659.764 734.838,1675.678 874.290,1666.698 " />
<polygon stroke="black" stroke-width="1" fill="grey" fill-opacity="0.25" points="1155.640,1703.381 1141.456,1695.675 1131.187,1708.079 1144.985,1714.824 " />
<polygon stroke="black" stroke-width="1" fill="grey" fill-opacity="0.25" points="1180.138,1679.227 1164.832,1668.754 1141.456,1695.675 1155.640,1703.381 " />
<polygon stroke="black" stroke-width="1" fill="grey" fill-opacity="0.25" points="869.725,1616.475 714.636,1627.958 728.074,1659.764 872.706,1649.889 " />
<polygon stroke="black" stroke-width="1" fill="grey" fill-opacity="0.25" points="1164.832,1668.754 1152.784,1661.635 1130.545,1690.264 1141.456,1695.675 " />
<polygon stroke="black" stroke-width="1" fill="grey" fill-opacity="0.25" points="1272.491,1973.061 1269.697,1964.520 1232.059,1974.407 1234.789,1982.575 " />
<polygon stroke="black" stroke-width="1" fill="grey" fill-opacity="0.25" points="549.970,1722.085 542.875,1743.376 574.007,1764.883 580.368,1744.044 " />
<polygon stroke="black" stroke-width="1" fill="grey" fill-opacity="0.25" points="482.294,1965.586 479.012,1974.697 517.925,1984.373 521.342,1975.665 " />
<polygon stroke="black" stroke-width="1" fill="grey" fill-opacity="0.25" points="1026.651,1625.169 869.725,1616.475 872.706,1649.889 1018.458,1658.500 " />
<polygon stroke="black" stroke-width="1" fill="grey" fill-opacity="0.25" points="565.823,1677.930 549.970,1722.085 580.368,1744.044 592.779,1700.198 " />
<polygon stroke="black" stroke-width="1" fill="grey" fill-opacity="0.25" points="1198.858,1723.353 1180.138,1679.227 1155.640,1703.381 1170.765,1746.431 " />
<polygon stroke="black" stroke-width="1" fill="grey" fill-opacity="0.25" points="1052.565,1630.080 1026.651,1625.169 1018.458,1658.500 1044.968,1663.296 " />
<polygon stroke="black" stroke-width="1" fill="grey" fill-opacity="0.25" points="1269.697,1964.520 1207.002,1744.456 1178.121,1766.892 1232.059,1974.407 " />
<polygon stroke="black" stroke-width="1" fill="grey" fill-opacity="0.25" points="542.875,1743.376 482.294,1965.586 521.342,1975.665 574.007,1764.883 " />
<polygon stroke="black" stroke-width="1" fill="grey" fill-opacity="0.25" points="599.939,1658.281 565.823,1677.930 592.779,1700.198 624.102,1686.514 " />
<polygon stroke="black" stroke-width="1" fill="grey" fill-opacity="0.25" points="1207.002,1744.456 1198.858,1723.353 1170.765,1746.431 1178.121,1766.892 " />
<polygon stroke="black" stroke-width="1" fill="grey" fill-opacity="0.25" points="1232.658,1725.064 1224.684,1702.489 1198.858,1723.353 1207.002,1744.456 " />
<polygon stroke="black" stroke-width="1" fill="grey" fill-opacity="0.25" points="540.950,1657.154 538.956,1656.308 523.305,1702.640 549.970,1722.085 565.823,1677.930 " />
<polygon stroke="black" stroke-width="1" fill="grey" fill-opacity="0.25" points="516.399,1725.112 448.723,1955.960 482.294,1965.586 542.875,1743.376 " />
<polygon stroke="black" stroke-width="1" fill="grey" fill-opacity="0.25" points="1302.984,1954.483 1232.658,1725.064 1207.002,1744.456 1269.697,1964.520 " />
<polygon stroke="black" stroke-width="1" fill="grey" fill-opacity="0.25" points="1065.070,1594.238 1032.977,1588.982 1027.082,1621.820 1056.375,1627.348 " />
<polygon stroke="black" stroke-width="1" fill="grey" fill-opacity="0.25" points="1204.422,1656.045 1203.193,1655.619 1186.941,1642.529 1164.832,1668.754 1180.138,1679.227 " />
<polygon stroke="black" stroke-width="1" fill="grey" fill-opacity="0.25" points="1032.977,1588.982 868.188,1581.550 869.695,1613.195 1027.082,1621.820 " />
<polygon stroke="black" stroke-width="1" fill="grey" fill-opacity="0.25" points="448.723,1955.960 445.443,1966.125 479.012,1974.697 482.294,1965.586 " />
<polygon stroke="black" stroke-width="1" fill="grey" fill-opacity="0.25" points="523.305,1702.640 516.399,1725.112 542.875,1743.376 549.970,1722.085 " />
<polygon stroke="black" stroke-width="1" fill="grey" fill-opacity="0.25" points="1186.941,1642.529 1173.250,1633.572 1152.784,1661.635 1164.832,1668.754 " />
<polygon stroke="black" stroke-width="1" fill="grey" fill-opacity="0.25" points="868.188,1581.550 705.544,1593.265 714.135,1624.684 869.695,1613.195 " />
<polygon stroke="black" stroke-width="1" fill="grey" fill-opacity="0.25" points="52.849,1922.606 219.019,1916.797 218.845,1912.061 53.916,1917.549 " />
<polygon stroke="black" stroke-width="1" fill="grey" fill-opacity="0.25" points="1535.991,1907.223 1707.421,1911.029 1707.549,1905.264 1536.119,1901.457 " />
<polygon stroke="black" stroke-width="1" fill="grey" fill-opacity="0.25" points="1412.647,1936.223 1535.832,1901.401 1535.905,1895.745 1411.618,1932.772 " />
<polygon stroke="black" stroke-width="1" fill="grey" fill-opacity="0.25" points="1307.712,1970.246 1413.246,1939.770 1412.256,1936.341 1306.973,1967.030 " />
<polygon stroke="black" stroke-width="1" fill="grey" fill-opacity="0.25" points="1306.973,1967.030 1412.256,1936.341 1411.262,1932.900 1306.126,1963.852 " />
<polygon stroke="black" stroke-width="1" fill="grey" fill-opacity="0.25" points="1113.095,2006.456 1132.505,2002.926 1133.487,2000.997 1114.410,2004.868 " />
<polygon stroke="black" stroke-width="1" fill="grey" fill-opacity="0.25" points="1114.410,2004.868 1133.487,2000.997 1133.573,1998.522 1114.304,2002.320 " />
<polygon stroke="black" stroke-width="1" fill="grey" fill-opacity="0.25" points="1273.396,1978.957 1307.712,1970.246 1306.973,1967.030 1273.075,1976.003 " />
<polygon stroke="black" stroke-width="1" fill="grey" fill-opacity="0.25" points="1273.075,1976.003 1306.973,1967.030 1306.126,1963.852 1272.491,1973.061 " />
<polygon stroke="black" stroke-width="1" fill="grey" fill-opacity="0.25" points="1132.505,2002.926 1166.005,2000.737 1166.441,1998.305 1133.487,2000.997 " />
<polygon stroke="black" stroke-width="1" fill="grey" fill-opacity="0.25" points="1133.487,2000.997 1166.441,1998.305 1166.420,1995.598 1133.573,1998.522 " />
<polygon stroke="black" stroke-width="1" fill="grey" fill-opacity="0.25" points="1166.005,2000.737 1181.264,1998.782 1181.534,1996.226 1166.441,1998.305 " />
<polygon stroke="black" stroke-width="1" fill="grey" fill-opacity="0.25" points="1166.441,1998.305 1181.534,1996.226 1181.356,1993.441 1166.420,1995.598 " />
<polygon stroke="black" stroke-width="1" fill="grey" fill-opacity="0.25" points="1181.264,1998.782 1217.791,1991.934 1217.924,1989.245 1181.534,1996.226 " />
<polygon stroke="black" stroke-width="1" fill="grey" fill-opacity="0.25" points="1181.534,1996.226 1217.924,1989.245 1217.627,1986.442 1181.356,1993.441 " />
<polygon stroke="black" stroke-width="1" fill="grey" fill-opacity="0.25" points="1217.791,1991.934 1235.264,1988.211 1235.215,1985.425 1217.924,1989.245 " />
<polygon stroke="black" stroke-width="1" fill="grey" fill-opacity="0.25" points="1217.924,1989.245 1235.215,1985.425 1234.789,1982.575 1217.627,1986.442 " />
<polygon stroke="black" stroke-width="1" fill="grey" fill-opacity="0.25" points="1235.264,1988.211 1273.396,1978.957 1273.075,1976.003 1235.215,1985.425 " />
<polygon stroke="black" stroke-width="1" fill="grey" fill-opacity="0.25" points="1235.215,1985.425 1273.075,1976.003 1272.491,1973.061 1234.789,1982.575 " />
<polygon stroke="black" stroke-width="1" fill="grey" fill-opacity="0.25" points="1306.126,1963.852 1302.984,1954.483 1269.697,1964.520 1272.491,1973.061 " />
<polygon stroke="black" stroke-width="1" fill="grey" fill-opacity="0.25" points="339.733,1944.058 444.380,1971.362 444.844,1968.728 340.456,1941.287 " />
<polygon stroke="black" stroke-width="1" fill="grey" fill-opacity="0.25" points="340.456,1941.287 444.844,1968.728 445.443,1966.125 341.189,1938.476 " />
<polygon stroke="black" stroke-width="1" fill="grey" fill-opacity="0.25" points="339.478,1941.112 219.228,1912.051 219.316,1916.835 338.836,1943.771 " />
<polygon stroke="black" stroke-width="1" fill="grey" fill-opacity="0.25" points="1413.510,1939.645 1535.680,1907.254 1535.832,1901.401 1412.647,1936.223 " />
<polygon stroke="black" stroke-width="1" fill="grey" fill-opacity="0.25" points="53.916,1917.549 218.845,1912.061 218.664,1907.329 54.061,1912.753 " />
<polygon stroke="black" stroke-width="1" fill="grey" fill-opacity="0.25" points="592.303,2002.323 629.297,2004.825 628.208,2003.351 591.611,2000.412 " />
<polygon stroke="black" stroke-width="1" fill="grey" fill-opacity="0.25" points="591.611,2000.412 628.208,2003.351 628.068,2001.250 591.487,1998.192 " />
<polygon stroke="black" stroke-width="1" fill="grey" fill-opacity="0.25" points="629.297,2004.825 660.132,2011.609 658.880,2010.317 628.208,2003.351 " />
<polygon stroke="black" stroke-width="1" fill="grey" fill-opacity="0.25" points="628.208,2003.351 658.880,2010.317 658.757,2008.036 628.068,2001.250 " />
<polygon stroke="black" stroke-width="1" fill="grey" fill-opacity="0.25" points="576.018,2000.430 592.303,2002.323 591.611,2000.412 575.460,1998.379 " />
<polygon stroke="black" stroke-width="1" fill="grey" fill-opacity="0.25" points="575.460,1998.379 591.611,2000.412 591.487,1998.192 575.466,1996.064 " />
<polygon stroke="black" stroke-width="1" fill="grey" fill-opacity="0.25" points="536.407,1992.900 576.018,2000.430 575.460,1998.379 535.955,1990.735 " />
<polygon stroke="black" stroke-width="1" fill="grey" fill-opacity="0.25" points="535.955,1990.735 575.460,1998.379 575.466,1996.064 536.066,1988.417 " />
<polygon stroke="black" stroke-width="1" fill="grey" fill-opacity="0.25" points="517.970,1988.995 536.407,1992.900 535.955,1990.735 517.701,1986.730 " />
<polygon stroke="black" stroke-width="1" fill="grey" fill-opacity="0.25" points="517.701,1986.730 535.955,1990.735 536.066,1988.417 517.925,1984.373 " />
<polygon stroke="black" stroke-width="1" fill="grey" fill-opacity="0.25" points="478.634,1979.526 517.970,1988.995 517.701,1986.730 478.646,1977.116 " />
<polygon stroke="black" stroke-width="1" fill="grey" fill-opacity="0.25" points="478.646,1977.116 517.701,1986.730 517.925,1984.373 479.012,1974.697 " />
<polygon stroke="black" stroke-width="1" fill="grey" fill-opacity="0.25" points="444.380,1971.362 478.634,1979.526 478.646,1977.116 444.844,1968.728 " />
<polygon stroke="black" stroke-width="1" fill="grey" fill-opacity="0.25" points="444.844,1968.728 478.646,1977.116 479.012,1974.697 445.443,1966.125 " />
<polygon stroke="black" stroke-width="1" fill="grey" fill-opacity="0.25" points="632.039,1609.644 579.306,1630.990 599.939,1658.281 646.480,1640.106 " />
<polygon stroke="black" stroke-width="1" fill="grey" fill-opacity="0.25" points="647.469,1643.326 604.997,1659.799 626.329,1684.941 666.798,1672.464 " />
<polygon stroke="black" stroke-width="1" fill="grey" fill-opacity="0.25" points="666.798,1672.464 626.329,1684.941 637.793,1697.555 676.388,1686.912 " />
<polygon stroke="black" stroke-width="1" fill="grey" fill-opacity="0.25" points="676.388,1686.912 637.793,1697.555 661.648,1722.606 696.582,1715.348 " />
<polygon stroke="black" stroke-width="1" fill="grey" fill-opacity="0.25" points="696.582,1715.348 661.648,1722.606 670.358,1733.361 703.856,1727.352 " />
<polygon stroke="black" stroke-width="1" fill="grey" fill-opacity="0.25" points="703.856,1727.352 670.358,1733.361 690.527,1756.738 721.644,1753.001 " />
<polygon stroke="black" stroke-width="1" fill="grey" fill-opacity="0.25" points="741.474,1804.181 729.947,1766.861 698.562,1768.820 710.681,1803.742 " />
<polygon stroke="black" stroke-width="1" fill="grey" fill-opacity="0.25" points="744.467,1825.468 741.474,1804.181 710.681,1803.742 713.479,1824.409 " />
<polygon stroke="black" stroke-width="1" fill="grey" fill-opacity="0.25" points="727.189,2011.272 744.467,1825.468 713.479,1824.409 691.347,2006.451 " />
<polygon stroke="black" stroke-width="1" fill="grey" fill-opacity="0.25" points="721.856,1755.136 689.486,1758.933 698.562,1768.820 729.947,1766.861 " />
<polygon stroke="black" stroke-width="1" fill="grey" fill-opacity="0.25" points="1134.589,1614.347 1108.237,1605.022 1095.548,1637.583 1118.801,1645.768 " />
<polygon stroke="black" stroke-width="1" fill="grey" fill-opacity="0.25" points="1117.226,1646.568 1095.158,1638.825 1084.290,1673.073 1104.755,1679.833 " />
<polygon stroke="black" stroke-width="1" fill="grey" fill-opacity="0.25" points="1104.755,1679.833 1084.290,1673.073 1079.849,1689.043 1099.585,1695.371 " />
<polygon stroke="black" stroke-width="1" fill="grey" fill-opacity="0.25" points="1099.585,1695.371 1079.849,1689.043 1071.283,1719.019 1089.892,1724.168 " />
<polygon stroke="black" stroke-width="1" fill="grey" fill-opacity="0.25" points="1090.651,1725.346 1071.043,1719.938 1065.945,1731.847 1083.545,1736.292 " />
<polygon stroke="black" stroke-width="1" fill="grey" fill-opacity="0.25" points="1083.545,1736.292 1065.945,1731.847 1042.339,1757.341 1057.471,1759.728 " />
<polygon stroke="black" stroke-width="1" fill="grey" fill-opacity="0.25" points="1046.082,1805.721 1052.441,1770.875 1037.748,1769.883 1031.931,1805.903 " />
<polygon stroke="black" stroke-width="1" fill="grey" fill-opacity="0.25" points="1045.049,1825.903 1046.082,1805.721 1031.931,1805.903 1030.919,1826.489 " />
<polygon stroke="black" stroke-width="1" fill="grey" fill-opacity="0.25" points="1065.318,2004.397 1045.049,1825.903 1030.919,1826.489 1049.219,2006.673 " />
<polygon stroke="black" stroke-width="1" fill="grey" fill-opacity="0.25" points="1067.206,2016.321 1066.951,2014.919 1050.585,2017.249 1050.803,2018.659 " />
<polygon stroke="black" stroke-width="1" fill="grey" fill-opacity="0.25" points="1057.471,1759.728 1042.339,1757.341 1037.748,1769.883 1052.441,1770.875 " />
<polygon stroke="black" stroke-width="1" fill="grey" fill-opacity="0.25" points="1108.237,1605.022 1081.093,1597.716 1071.199,1630.806 1095.548,1637.583 " />
<polygon stroke="black" stroke-width="1" fill="grey" fill-opacity="0.25" points="1095.158,1638.825 1072.050,1632.376 1062.857,1667.174 1084.290,1673.073 " />
<polygon stroke="black" stroke-width="1" fill="grey" fill-opacity="0.25" points="1084.290,1673.073 1062.857,1667.174 1059.031,1683.429 1079.849,1689.043 " />
<polygon stroke="black" stroke-width="1" fill="grey" fill-opacity="0.25" points="1079.849,1689.043 1059.031,1683.429 1051.764,1714.228 1071.283,1719.019 " />
<polygon stroke="black" stroke-width="1" fill="grey" fill-opacity="0.25" points="1071.043,1719.938 1050.449,1714.894 1047.370,1727.809 1065.945,1731.847 " />
<polygon stroke="black" stroke-width="1" fill="grey" fill-opacity="0.25" points="1065.945,1731.847 1047.370,1727.809 1026.340,1755.220 1042.339,1757.341 " />
<polygon stroke="black" stroke-width="1" fill="grey" fill-opacity="0.25" points="1031.931,1805.903 1037.748,1769.883 1022.277,1769.169 1017.173,1805.981 " />
<polygon stroke="black" stroke-width="1" fill="grey" fill-opacity="0.25" points="1030.919,1826.489 1031.931,1805.903 1017.173,1805.981 1016.171,1826.984 " />
<polygon stroke="black" stroke-width="1" fill="grey" fill-opacity="0.25" points="1049.219,2006.673 1030.919,1826.489 1016.171,1826.984 1032.652,2008.601 " />
<polygon stroke="black" stroke-width="1" fill="grey" fill-opacity="0.25" points="1050.803,2018.659 1050.585,2017.249 1033.832,2019.307 1034.020,2020.736 " />
<polygon stroke="black" stroke-width="1" fill="grey" fill-opacity="0.25" points="1042.339,1757.341 1026.340,1755.220 1022.277,1769.169 1037.748,1769.883 " />
<polygon stroke="black" stroke-width="1" fill="grey" fill-opacity="0.25" points="1078.940,1763.541 1057.471,1759.728 1052.441,1770.875 1073.325,1773.072 " />
<polygon stroke="black" stroke-width="1" fill="grey" fill-opacity="0.25" points="1091.735,2012.075 1091.417,2010.686 1066.951,2014.919 1067.206,2016.321 " />
<polygon stroke="black" stroke-width="1" fill="grey" fill-opacity="0.25" points="1089.499,2000.226 1065.618,1824.933 1045.049,1825.903 1065.318,2004.397 " />
<polygon stroke="black" stroke-width="1" fill="grey" fill-opacity="0.25" points="1065.618,1824.933 1066.684,1805.257 1046.082,1805.721 1045.049,1825.903 " />
<polygon stroke="black" stroke-width="1" fill="grey" fill-opacity="0.25" points="1066.684,1805.257 1073.325,1773.072 1052.441,1770.875 1046.082,1805.721 " />
<polygon stroke="black" stroke-width="1" fill="grey" fill-opacity="0.25" points="1094.667,1739.705 1083.545,1736.292 1057.471,1759.728 1078.940,1763.541 " />
<polygon stroke="black" stroke-width="1" fill="grey" fill-opacity="0.25" points="1101.761,1729.102 1090.651,1725.346 1083.545,1736.292 1094.667,1739.705 " />
<polygon stroke="black" stroke-width="1" fill="grey" fill-opacity="0.25" points="1120.826,1703.500 1100.717,1695.600 1090.651,1725.346 1101.761,1729.102 " />
<polygon stroke="black" stroke-width="1" fill="grey" fill-opacity="0.25" points="1130.545,1690.264 1106.018,1680.088 1100.717,1695.600 1120.826,1703.500 " />
<polygon stroke="black" stroke-width="1" fill="grey" fill-opacity="0.25" points="1152.784,1661.635 1118.801,1645.768 1106.018,1680.088 1130.545,1690.264 " />
<polygon stroke="black" stroke-width="1" fill="grey" fill-opacity="0.25" points="1173.250,1633.572 1134.589,1614.347 1118.801,1645.768 1152.784,1661.635 " />
<polygon stroke="black" stroke-width="1" fill="grey" fill-opacity="0.25" points="1071.283,1719.019 1051.764,1714.228 1050.449,1714.894 1071.043,1719.938 " />
<polygon stroke="black" stroke-width="1" fill="grey" fill-opacity="0.25" points="1072.050,1632.376 1095.158,1638.825 1095.548,1637.583 1071.199,1630.806 " />
<polygon stroke="black" stroke-width="1" fill="grey" fill-opacity="0.25" points="1062.857,1667.174 1072.050,1632.376 1071.199,1630.806 1061.649,1666.665 " />
<polygon stroke="black" stroke-width="1" fill="grey" fill-opacity="0.25" points="1059.031,1683.429 1062.857,1667.174 1061.649,1666.665 1057.916,1682.999 " />
<polygon stroke="black" stroke-width="1" fill="grey" fill-opacity="0.25" points="1051.764,1714.228 1059.031,1683.429 1057.916,1682.999 1050.449,1714.894 " />
<polygon stroke="black" stroke-width="1" fill="grey" fill-opacity="0.25" points="1089.892,1724.168 1071.283,1719.019 1071.043,1719.938 1090.651,1725.346 " />
<polygon stroke="black" stroke-width="1" fill="grey" fill-opacity="0.25" points="1095.158,1638.825 1117.226,1646.568 1118.801,1645.768 1095.548,1637.583 " />
<polygon stroke="black" stroke-width="1" fill="grey" fill-opacity="0.25" points="1099.585,1695.371 1089.892,1724.168 1090.651,1725.346 1100.717,1695.600 " />
<polygon stroke="black" stroke-width="1" fill="grey" fill-opacity="0.25" points="1104.755,1679.833 1099.585,1695.371 1100.717,1695.600 1106.018,1680.088 " />
<polygon stroke="black" stroke-width="1" fill="grey" fill-opacity="0.25" points="1117.226,1646.568 1104.755,1679.833 1106.018,1680.088 1118.801,1645.768 " />
<polygon stroke="black" stroke-width="1" fill="grey" fill-opacity="0.25" points="1081.093,1597.716 1065.070,1594.238 1056.375,1627.348 1071.199,1630.806 " />
<polygon stroke="black" stroke-width="1" fill="grey" fill-opacity="0.25" points="1071.199,1630.806 1056.375,1627.348 1047.950,1663.566 1061.649,1666.665 " />
<polygon stroke="black" stroke-width="1" fill="grey" fill-opacity="0.25" points="1061.649,1666.665 1047.950,1663.566 1044.930,1680.091 1057.916,1682.999 " />
<polygon stroke="black" stroke-width="1" fill="grey" fill-opacity="0.25" points="1057.916,1682.999 1044.930,1680.091 1037.279,1712.338 1050.449,1714.894 " />
<polygon stroke="black" stroke-width="1" fill="grey" fill-opacity="0.25" points="1050.449,1714.894 1037.279,1712.338 1033.071,1725.307 1047.370,1727.809 " />
<polygon stroke="black" stroke-width="1" fill="grey" fill-opacity="0.25" points="1047.370,1727.809 1033.071,1725.307 1016.533,1754.027 1026.340,1755.220 " />
<polygon stroke="black" stroke-width="1" fill="grey" fill-opacity="0.25" points="1017.173,1805.981 1022.277,1769.169 1012.923,1768.875 1008.200,1806.043 " />
<polygon stroke="black" stroke-width="1" fill="grey" fill-opacity="0.25" points="1016.171,1826.984 1017.173,1805.981 1008.200,1806.043 1007.175,1827.229 " />
<polygon stroke="black" stroke-width="1" fill="grey" fill-opacity="0.25" points="1032.652,2008.601 1016.171,1826.984 1007.175,1827.229 1022.752,2009.520 " />
<polygon stroke="black" stroke-width="1" fill="grey" fill-opacity="0.25" points="1034.020,2020.736 1033.832,2019.307 1023.672,2020.398 1023.822,2021.869 " />
<polygon stroke="black" stroke-width="1" fill="grey" fill-opacity="0.25" points="1026.340,1755.220 1016.533,1754.027 1012.923,1768.875 1022.277,1769.169 " />
<polygon stroke="black" stroke-width="1" fill="grey" fill-opacity="0.25" points="883.203,1745.216 768.971,1749.207 769.100,1751.443 883.194,1747.496 " />
<polygon stroke="black" stroke-width="1" fill="grey" fill-opacity="0.25" points="996.723,1750.097 883.203,1745.216 883.194,1747.496 996.572,1752.339 " />
<polygon stroke="black" stroke-width="1" fill="grey" fill-opacity="0.25" points="721.644,1753.001 690.527,1756.738 689.486,1758.933 721.856,1755.136 " />
<polygon stroke="black" stroke-width="1" fill="grey" fill-opacity="0.25" points="647.469,1643.326 714.636,1627.958 714.135,1624.684 646.480,1640.106 " />
<polygon stroke="black" stroke-width="1" fill="grey" fill-opacity="0.25" points="869.725,1616.475 1026.651,1625.169 1027.082,1621.820 869.695,1613.195 " />
<polygon stroke="black" stroke-width="1" fill="grey" fill-opacity="0.25" points="714.636,1627.958 869.725,1616.475 869.695,1613.195 714.135,1624.684 " />
<polygon stroke="black" stroke-width="1" fill="grey" fill-opacity="0.25" points="626.329,1684.941 604.997,1659.799 599.939,1658.281 624.102,1686.514 " />
<polygon stroke="black" stroke-width="1" fill="grey" fill-opacity="0.25" points="637.793,1697.555 626.329,1684.941 624.102,1686.514 635.732,1699.044 " />
<polygon stroke="black" stroke-width="1" fill="grey" fill-opacity="0.25" points="661.648,1722.606 637.793,1697.555 635.732,1699.044 659.632,1723.981 " />
<polygon stroke="black" stroke-width="1" fill="grey" fill-opacity="0.25" points="670.358,1733.361 661.648,1722.606 659.632,1723.981 668.404,1734.595 " />
<polygon stroke="black" stroke-width="1" fill="grey" fill-opacity="0.25" points="690.527,1756.738 670.358,1733.361 668.404,1734.595 689.486,1758.933 " />
<polygon stroke="black" stroke-width="1" fill="grey" fill-opacity="0.25" points="1015.074,1751.690 996.723,1750.097 996.572,1752.339 1016.533,1754.027 " />
<polygon stroke="black" stroke-width="1" fill="grey" fill-opacity="0.25" points="1026.651,1625.169 1052.565,1630.080 1056.375,1627.348 1027.082,1621.820 " />
<polygon stroke="black" stroke-width="1" fill="grey" fill-opacity="0.25" points="1052.565,1630.080 1044.968,1663.296 1047.950,1663.566 1056.375,1627.348 " />
<polygon stroke="black" stroke-width="1" fill="grey" fill-opacity="0.25" points="1044.968,1663.296 1042.098,1679.886 1044.930,1680.091 1047.950,1663.566 " />
<polygon stroke="black" stroke-width="1" fill="grey" fill-opacity="0.25" points="1042.098,1679.886 1034.599,1711.968 1037.279,1712.338 1044.930,1680.091 " />
<polygon stroke="black" stroke-width="1" fill="grey" fill-opacity="0.25" points="1034.599,1711.968 1030.594,1724.611 1033.071,1725.307 1037.279,1712.338 " />
<polygon stroke="black" stroke-width="1" fill="grey" fill-opacity="0.25" points="1030.594,1724.611 1015.074,1751.690 1016.533,1754.027 1033.071,1725.307 " />
<polygon stroke="black" stroke-width="1" fill="grey" fill-opacity="0.25" points="578.010,1558.482 585.107,1335.112 584.990,1332.898 582.008,1321.238 577.394,1314.386 574.415,1558.448 " />
<polygon stroke="black" stroke-width="1" fill="grey" fill-opacity="0.25" points="1138.575,1314.091 1133.240,1559.050 1136.549,1559.258 1147.261,1372.584 1146.231,1332.021 1142.749,1318.130 " />
<polygon stroke="black" stroke-width="1" fill="grey" fill-opacity="0.25" points="582.008,1321.238 1133.506,1321.337 1138.575,1314.091 577.394,1314.386 " />
<polygon stroke="black" stroke-width="1" fill="grey" fill-opacity="0.25" points="506.805,1386.474 511.773,1379.133 127.750,1428.034 111.363,1436.829 " />
<polygon stroke="black" stroke-width="1" fill="grey" fill-opacity="0.25" points="505.921,1393.569 506.805,1386.474 111.363,1436.829 105.612,1444.544 " />
<polygon stroke="black" stroke-width="1" fill="grey" fill-opacity="0.25" points="506.371,1400.417 505.921,1393.569 105.612,1444.544 117.519,1449.933 " />
<polygon stroke="black" stroke-width="1" fill="grey" fill-opacity="0.25" points="1602.489,1400.835 1214.934,1376.717 1220.684,1383.758 1618.907,1408.540 " />
<polygon stroke="black" stroke-width="1" fill="grey" fill-opacity="0.25" points="1625.119,1415.871 1222.129,1390.792 1222.149,1397.660 1613.581,1422.020 " />
<polygon stroke="black" stroke-width="1" fill="grey" fill-opacity="0.25" points="1618.907,1408.540 1220.684,1383.758 1222.129,1390.792 1625.119,1415.871 " />
<polygon stroke="black" stroke-width="1" fill="grey" fill-opacity="0.25" points="110.046,1448.822 44.679,1889.892 50.645,1890.462 117.519,1449.933 " />
<polygon stroke="black" stroke-width="1" fill="grey" fill-opacity="0.25" points="1613.581,1422.020 1708.003,1877.001 1714.116,1876.063 1621.414,1420.530 " />
<polygon stroke="black" stroke-width="1" fill="grey" fill-opacity="0.25" points="1721.775,1899.418 1720.428,1898.384 1715.985,1901.437 1719.305,1904.343 " />
<polygon stroke="black" stroke-width="1" fill="grey" fill-opacity="0.25" points="1719.305,1904.343 1715.985,1901.437 1711.858,1903.575 1716.022,1908.541 " />
<polygon stroke="black" stroke-width="1" fill="grey" fill-opacity="0.25" points="1716.022,1908.541 1711.858,1903.575 1707.549,1905.264 1711.854,1911.856 " />
<polygon stroke="black" stroke-width="1" fill="grey" fill-opacity="0.25" points="1720.428,1898.384 1720.398,1898.288 1715.170,1898.193 1715.985,1901.437 " />
<polygon stroke="black" stroke-width="1" fill="grey" fill-opacity="0.25" points="1715.985,1901.437 1715.170,1898.193 1710.781,1898.379 1711.858,1903.575 " />
<polygon stroke="black" stroke-width="1" fill="grey" fill-opacity="0.25" points="1711.858,1903.575 1710.781,1898.379 1706.454,1898.762 1707.549,1905.264 " />
<polygon stroke="black" stroke-width="1" fill="grey" fill-opacity="0.25" points="1720.398,1898.288 1727.252,1873.610 1720.590,1874.863 1715.170,1898.193 " />
<polygon stroke="black" stroke-width="1" fill="grey" fill-opacity="0.25" points="1715.170,1898.193 1720.590,1874.863 1714.116,1876.063 1710.781,1898.379 " />
<polygon stroke="black" stroke-width="1" fill="grey" fill-opacity="0.25" points="1710.781,1898.379 1714.116,1876.063 1708.003,1877.001 1706.454,1898.762 " />
<polygon stroke="black" stroke-width="1" fill="grey" fill-opacity="0.25" points="40.876,1914.569 40.740,1914.759 44.254,1918.453 45.775,1915.934 " />
<polygon stroke="black" stroke-width="1" fill="grey" fill-opacity="0.25" points="45.775,1915.934 44.254,1918.453 48.338,1921.217 50.039,1916.960 " />
<polygon stroke="black" stroke-width="1" fill="grey" fill-opacity="0.25" points="50.039,1916.960 48.338,1921.217 52.849,1922.606 53.916,1917.549 " />
<polygon stroke="black" stroke-width="1" fill="grey" fill-opacity="0.25" points="40.545,1913.354 40.876,1914.569 45.775,1915.934 45.715,1913.741 " />
<polygon stroke="black" stroke-width="1" fill="grey" fill-opacity="0.25" points="45.715,1913.741 45.775,1915.934 50.039,1916.960 50.050,1913.003 " />
<polygon stroke="black" stroke-width="1" fill="grey" fill-opacity="0.25" points="50.050,1913.003 50.039,1916.960 53.916,1917.549 54.061,1912.753 " />
<polygon stroke="black" stroke-width="1" fill="grey" fill-opacity="0.25" points="54.061,1912.753 50.645,1890.462 44.679,1889.892 50.050,1913.003 " />
<polygon stroke="black" stroke-width="1" fill="grey" fill-opacity="0.25" points="50.050,1913.003 44.679,1889.892 38.610,1889.041 45.715,1913.741 " />
<polygon stroke="black" stroke-width="1" fill="grey" fill-opacity="0.25" points="45.715,1913.741 38.610,1889.041 32.194,1888.087 40.545,1913.354 " />
<polygon stroke="black" stroke-width="1" fill="grey" fill-opacity="0.25" points="1629.156,1419.057 1720.590,1874.863 1727.252,1873.610 1636.986,1417.565 " />
<polygon stroke="black" stroke-width="1" fill="grey" fill-opacity="0.25" points="1621.414,1420.530 1714.116,1876.063 1720.590,1874.863 1629.156,1419.057 " />
<polygon stroke="black" stroke-width="1" fill="grey" fill-opacity="0.25" points="688.854,2018.928 689.134,2017.727 658.880,2010.317 660.132,2011.609 " />
<polygon stroke="black" stroke-width="1" fill="grey" fill-opacity="0.25" points="658.757,2008.036 689.684,2015.297 691.347,2006.451 663.106,2000.307 " />
<polygon stroke="black" stroke-width="1" fill="grey" fill-opacity="0.25" points="658.880,2010.317 689.134,2017.727 689.684,2015.297 658.757,2008.036 " />
<polygon stroke="black" stroke-width="1" fill="grey" fill-opacity="0.25" points="726.170,2020.450 778.853,2023.547 779.035,2014.422 727.189,2011.272 " />
<polygon stroke="black" stroke-width="1" fill="grey" fill-opacity="0.25" points="725.851,2022.926 778.767,2025.888 778.853,2023.547 726.170,2020.450 " />
<polygon stroke="black" stroke-width="1" fill="grey" fill-opacity="0.25" points="778.853,2023.547 890.037,2023.538 889.888,2014.756 779.035,2014.422 " />
<polygon stroke="black" stroke-width="1" fill="grey" fill-opacity="0.25" points="778.767,2025.888 890.067,2025.756 890.037,2023.538 778.853,2023.547 " />
<polygon stroke="black" stroke-width="1" fill="grey" fill-opacity="0.25" points="890.037,2023.538 1002.375,2019.835 1002.065,2010.944 889.888,2014.756 " />
<polygon stroke="black" stroke-width="1" fill="grey" fill-opacity="0.25" points="890.067,2025.756 1002.480,2021.837 1002.375,2019.835 890.037,2023.538 " />
<polygon stroke="black" stroke-width="1" fill="grey" fill-opacity="0.25" points="1023.474,2018.399 1033.582,2017.362 1032.652,2008.601 1022.752,2009.520 " />
<polygon stroke="black" stroke-width="1" fill="grey" fill-opacity="0.25" points="1002.375,2019.835 1023.474,2018.399 1022.752,2009.520 1002.065,2010.944 " />
<polygon stroke="black" stroke-width="1" fill="grey" fill-opacity="0.25" points="1050.292,2015.327 1066.608,2013.007 1065.318,2004.397 1049.219,2006.673 " />
<polygon stroke="black" stroke-width="1" fill="grey" fill-opacity="0.25" points="1033.582,2017.362 1050.292,2015.327 1049.219,2006.673 1032.652,2008.601 " />
<polygon stroke="black" stroke-width="1" fill="grey" fill-opacity="0.25" points="1023.672,2020.398 1033.832,2019.307 1033.582,2017.362 1023.474,2018.399 " />
<polygon stroke="black" stroke-width="1" fill="grey" fill-opacity="0.25" points="1002.480,2021.837 1023.672,2020.398 1023.474,2018.399 1002.375,2019.835 " />
<polygon stroke="black" stroke-width="1" fill="grey" fill-opacity="0.25" points="1050.585,2017.249 1066.951,2014.919 1066.608,2013.007 1050.292,2015.327 " />
<polygon stroke="black" stroke-width="1" fill="grey" fill-opacity="0.25" points="1033.832,2019.307 1050.585,2017.249 1050.292,2015.327 1033.582,2017.362 " />
<polygon stroke="black" stroke-width="1" fill="grey" fill-opacity="0.25" points="1090.991,2008.792 1100.333,2006.829 1098.656,1998.415 1089.499,2000.226 " />
<polygon stroke="black" stroke-width="1" fill="grey" fill-opacity="0.25" points="1100.333,2006.829 1114.304,2002.320 1111.143,1995.500 1098.656,1998.415 " />
<polygon stroke="black" stroke-width="1" fill="grey" fill-opacity="0.25" points="1091.417,2010.686 1100.893,2008.691 1100.333,2006.829 1090.991,2008.792 " />
<polygon stroke="black" stroke-width="1" fill="grey" fill-opacity="0.25" points="1100.893,2008.691 1114.410,2004.868 1114.304,2002.320 1100.333,2006.829 " />
<polygon stroke="black" stroke-width="1" fill="grey" fill-opacity="0.25" points="1066.951,2014.919 1091.417,2010.686 1090.991,2008.792 1066.608,2013.007 " />
<polygon stroke="black" stroke-width="1" fill="grey" fill-opacity="0.25" points="1066.608,2013.007 1090.991,2008.792 1089.499,2000.226 1065.318,2004.397 " />
<polygon stroke="black" stroke-width="1" fill="grey" fill-opacity="0.25" points="340.320,1938.056 219.029,1907.330 219.228,1912.051 339.478,1941.112 " />
<polygon stroke="black" stroke-width="1" fill="grey" fill-opacity="0.25" points="889.888,2014.756 888.878,1919.651 783.154,1917.027 779.035,2014.422 " />
<polygon stroke="black" stroke-width="1" fill="grey" fill-opacity="0.25" points="689.134,2017.727 725.851,2022.926 726.170,2020.450 689.684,2015.297 " />
<polygon stroke="black" stroke-width="1" fill="grey" fill-opacity="0.25" points="689.684,2015.297 726.170,2020.450 727.189,2011.272 691.347,2006.451 " />
<polygon stroke="black" stroke-width="1" fill="grey" fill-opacity="0.25" points="604.997,1659.799 647.469,1643.326 646.480,1640.106 599.939,1658.281 " />
<polygon stroke="black" stroke-width="1" fill="grey" fill-opacity="0.25" points="768.971,1749.207 721.644,1753.001 721.856,1755.136 769.100,1751.443 " />
<polygon stroke="black" stroke-width="1" fill="grey" fill-opacity="0.25" points="769.100,1751.443 721.856,1755.136 729.947,1766.861 775.651,1765.087 " />
<polygon stroke="black" stroke-width="1" fill="grey" fill-opacity="0.25" points="779.035,2014.422 783.154,1917.027 787.090,1826.068 744.467,1825.468 727.189,2011.272 " />
<polygon stroke="black" stroke-width="1" fill="grey" fill-opacity="0.25" points="787.090,1826.068 784.807,1804.305 741.474,1804.181 744.467,1825.468 " />
<polygon stroke="black" stroke-width="1" fill="grey" fill-opacity="0.25" points="784.807,1804.305 775.651,1765.087 729.947,1766.861 741.474,1804.181 " />
<polygon stroke="black" stroke-width="1" fill="grey" fill-opacity="0.25" points="755.174,1720.763 703.856,1727.352 721.644,1753.001 768.971,1749.207 " />
<polygon stroke="black" stroke-width="1" fill="grey" fill-opacity="0.25" points="749.827,1707.537 696.582,1715.348 703.856,1727.352 755.174,1720.763 " />
<polygon stroke="black" stroke-width="1" fill="grey" fill-opacity="0.25" points="734.838,1675.678 676.388,1686.912 696.582,1715.348 749.827,1707.537 " />
<polygon stroke="black" stroke-width="1" fill="grey" fill-opacity="0.25" points="728.074,1659.764 666.798,1672.464 676.388,1686.912 734.838,1675.678 " />
<polygon stroke="black" stroke-width="1" fill="grey" fill-opacity="0.25" points="714.636,1627.958 647.469,1643.326 666.798,1672.464 728.074,1659.764 " />
<polygon stroke="black" stroke-width="1" fill="grey" fill-opacity="0.25" points="705.544,1593.265 632.039,1609.644 646.480,1640.106 714.135,1624.684 " />
<polygon stroke="black" stroke-width="1" fill="grey" fill-opacity="0.25" points="778.706,2027.406 778.767,2025.888 725.851,2022.926 725.681,2024.210 " />
<polygon stroke="black" stroke-width="1" fill="grey" fill-opacity="0.25" points="584.990,1332.898 1130.192,1332.422 1133.506,1321.337 582.008,1321.238 " />
<polygon stroke="black" stroke-width="1" fill="grey" fill-opacity="0.25" points="102.486,1447.698 38.610,1889.041 44.679,1889.892 110.046,1448.822 " />
<polygon stroke="black" stroke-width="1" fill="grey" fill-opacity="0.25" points="94.787,1446.552 32.194,1888.087 38.610,1889.041 102.486,1447.698 " />
<polygon stroke="black" stroke-width="1" fill="grey" fill-opacity="0.25" points="1138.575,1314.091 1133.506,1321.337 1130.192,1332.422 1129.233,1559.058 1133.240,1559.050 " />
<polygon stroke="black" stroke-width="1" fill="grey" fill-opacity="0.25" points="1002.065,2010.944 995.480,1915.926 888.878,1919.651 889.888,2014.756 " />
<polygon stroke="black" stroke-width="1" fill="grey" fill-opacity="0.25" points="888.029,1829.332 986.456,1829.847 989.530,1827.470 888.050,1826.914 " />
<polygon stroke="black" stroke-width="1" fill="grey" fill-opacity="0.25" points="790.267,1828.527 888.029,1829.332 888.050,1826.914 787.090,1826.068 " />
<polygon stroke="black" stroke-width="1" fill="grey" fill-opacity="0.25" points="888.861,1917.116 786.617,1914.596 783.154,1917.027 888.878,1919.651 " />
<polygon stroke="black" stroke-width="1" fill="grey" fill-opacity="0.25" points="986.456,1829.847 992.040,1913.569 995.480,1915.926 989.530,1827.470 " />
<polygon stroke="black" stroke-width="1" fill="grey" fill-opacity="0.25" points="786.617,1914.596 790.267,1828.527 787.090,1826.068 783.154,1917.027 " />
<polygon stroke="black" stroke-width="1" fill="grey" fill-opacity="0.25" points="992.040,1913.569 888.861,1917.116 888.878,1919.651 995.480,1915.926 " />
<polygon stroke="black" stroke-width="1" fill="grey" fill-opacity="0.25" points="1129.233,1559.058 1130.192,1332.422 1113.763,1392.263 1113.647,1486.660 1112.728,1488.080 1099.747,1488.073 1098.968,1486.792 1098.948,1392.445 1037.278,1392.298 1037.504,1514.634 620.021,1514.630 619.745,1392.404 585.107,1335.112 578.010,1558.482 611.422,1558.645 653.986,1559.066 712.039,1559.085 846.159,1558.807 982.084,1559.044 1007.869,1559.071 1021.831,1559.093 1042.298,1559.100 1064.564,1559.070 1099.457,1559.135 1112.696,1559.087 " />
<polygon stroke="black" stroke-width="1" fill="grey" fill-opacity="0.25" points="506.371,1400.417 117.519,1449.933 50.645,1890.462 217.529,1888.178 250.098,1683.948 259.963,1654.763 273.567,1636.481 291.116,1624.299 310.718,1621.142 349.310,1633.108 364.661,1647.103 374.850,1667.887 379.056,1691.690 376.527,1723.151 343.958,1927.380 448.723,1955.960 516.399,1725.112 523.305,1702.640 538.956,1656.308 " />
<polygon stroke="black" stroke-width="1" fill="grey" fill-opacity="0.25" points="566.718,1372.935 571.440,1558.615 574.415,1558.448 577.394,1314.386 573.567,1319.057 569.084,1331.164 " />
<polygon stroke="black" stroke-width="1" fill="grey" fill-opacity="0.25" points="1130.192,1332.422 584.990,1332.898 585.107,1335.112 619.745,1392.404 1037.278,1392.298 1098.948,1392.445 1113.763,1392.263 " />

</svg>
